<?xml version="1.0" encoding="utf-8"?>
<!-- Generator: Adobe Illustrator 16.0.4, SVG Export Plug-In . SVG Version: 6.00 Build 0)  -->
<!DOCTYPE svg PUBLIC "-//W3C//DTD SVG 1.1//EN" "http://www.w3.org/Graphics/SVG/1.1/DTD/svg11.dtd">
<svg version="1.1" id="Layer_1" xmlns="http://www.w3.org/2000/svg" xmlns:xlink="http://www.w3.org/1999/xlink" x="0px" y="0px"
	 width="100px" height="100px" viewBox="0 0 100 100" enable-background="new 0 0 100 100" xml:space="preserve">
<g>
	<path fill-rule="evenodd" clip-rule="evenodd" fill="#FFFFFF" d="M53.498,8.591c2.385,0.47,4.79,0.833,7.133,1.447
		c17.155,4.405,29.886,19.505,31.715,37.116c1.999,19.235-9.511,37.818-27.717,44.553c-0.477,0.176-0.903,0.452-1.354,0.684
		c-0.462,0-0.927,0-1.403,0c-1.183-0.658-1.628-1.654-1.566-3.013c0.101-2.212,0.076-4.417,0.076-6.629
		c-0.012-4.262,0.526-8.629-2.731-12.273c1.052-0.17,1.854-0.308,2.655-0.438c15.294-2.495,22.079-19.028,12.988-31.598
		c-0.3-0.413-0.407-1.158-0.274-1.678c0.694-2.965,0.525-5.859-0.221-8.791c-0.375-1.461-1.183-2.081-2.468-1.597
		c-2.97,1.121-5.84,2.448-8.784,3.628c-0.752,0.281-1.673,0.57-2.412,0.394c-5.931-1.328-11.876-1.504-17.816-0.163
		c-1.616,0.357-3.039,0.463-4.367-0.696c-0.263-0.219-0.739-0.188-1.108-0.307c-0.604-0.193-1.423-0.225-1.765-0.644
		c-1.585-1.931-3.787-2.119-5.977-2.226c-0.454-0.019-1.2,0.641-1.381,1.135c-1.041,2.977-1.184,6.021-0.468,9.103
		c0.133,0.539,0.164,1.342-0.143,1.711c-3.775,4.517-4.324,9.78-3.605,15.324c1.159,8.891,5.974,14.11,14.773,16.077
		c1.385,0.312,2.775,0.546,3.951,0.771c-0.696,1.673-1.295,3.284-2.042,4.837c-0.257,0.533-0.799,1.109-1.347,1.311
		c-4.59,1.685-8.421,0.351-11.122-3.848c-1.542-2.394-3.478-4.235-6.456-4.498c-0.665-0.063-1.373,0.351-2.062,0.539
		c0.395,0.594,0.664,1.378,1.209,1.74c2.246,1.449,3.784,3.435,4.758,5.858c1.68,4.186,4.932,6.021,9.229,6.215
		c1.766,0.101,3.555-0.124,5.586-0.22c0,2.319-0.054,4.632,0.021,6.948c0.048,1.361-0.397,2.351-1.566,3.027c-0.466,0-0.931,0-1.4,0
		c-0.504-0.245-0.993-0.532-1.516-0.739C16.987,85.028,5.7,67.686,6.796,49.053C7.902,30.301,20.957,14.506,39.187,9.918
		c2.181-0.539,4.419-0.895,6.627-1.328C48.378,8.591,50.936,8.591,53.498,8.591z"/>
</g>
</svg>
